<svg width="12" height="20" viewBox="0 0 12 20" fill="none" xmlns="http://www.w3.org/2000/svg">
                            <path d="M11.4978 11.103L2.66869 19.5574C2.52368 19.6976 2.35115 19.809 2.16106 19.8849C1.97097 19.9609 1.76708 20 1.56115 20C1.35522 20 1.15133 19.9609 0.961244 19.8849C0.771154 19.809 0.598626 19.6976 0.453612 19.5574C0.163076 19.277 0 18.8978 0 18.5024C0 18.1071 0.163076 17.7279 0.453612 17.4475L8.17519 9.96573L0.453612 2.55877C0.163076 2.27841 0 1.89915 0 1.50384C0 1.10852 0.163076 0.729267 0.453612 0.448906C0.598083 0.307518 0.770367 0.195036 0.960483 0.117979C1.1506 0.0409213 1.35476 0.000821575 1.56115 -2.99308e-07C1.76754 0.000821575 1.97171 0.0409213 2.16182 0.117979C2.35194 0.195036 2.52422 0.307518 2.66869 0.448906L11.4978 8.90332C11.6562 9.04344 11.7825 9.21351 11.8689 9.40279C11.9554 9.59208 12 9.79649 12 10.0031C12 10.2098 11.9554 10.4142 11.8689 10.6035C11.7825 10.7928 11.6562 10.9628 11.4978 11.103V11.103Z" fill="#744037"></path>
                        </svg>